<svg width="20" height="20" viewBox="0 0 20 20" fill="none" xmlns="http://www.w3.org/2000/svg">
    <path opacity=".4" fill-rule="evenodd" clip-rule="evenodd" d="M8.299 1.478a2.75 2.75 0 0 1 3.402 0c.293.231.515.557.72.912.208.358.444.83.738 1.418l.012.023.16.32c.195.39.25.494.313.576.157.205.374.356.62.432.098.03.215.047.648.095l1.483.165.027.003c.127.014.219.024.284.035 2.204.352 3.093 3.044 1.532 4.64-.046.046-.114.11-.208.196l-.02.019-.833.773a.75.75 0 1 1-1.02-1.099l.833-.774.176-.165a1.25 1.25 0 0 0-.696-2.109 7.899 7.899 0 0 0-.24-.028l-1.483-.165-.06-.007c-.345-.038-.615-.068-.869-.146a2.75 2.75 0 0 1-1.364-.952c-.161-.21-.283-.453-.437-.763a45.457 45.457 0 0 1-.028-.055l-.16-.32a28.367 28.367 0 0 0-.706-1.361c-.186-.321-.291-.438-.35-.484a1.25 1.25 0 0 0-1.546 0c-.059.046-.164.162-.35.484a28.41 28.41 0 0 0-.706 1.361l-.209.417a.75.75 0 0 1-1.341-.671l.208-.417.671.336-.67-.336.01-.023c.295-.588.53-1.06.738-1.418.206-.355.428-.681.72-.912z" fill="currentColor"/>
    <path fill-rule="evenodd" clip-rule="evenodd" d="M8.669 1.83a.75.75 0 0 1 .335 1.005l-.416.834-.577 1.153-.027.055c-.155.31-.277.553-.438.763a2.75 2.75 0 0 1-1.364.951c-.253.08-.523.11-.868.147l-.06.007c-.712.079-1.213.135-1.584.198-.384.066-.534.125-.594.162a1.25 1.25 0 0 0-.507 1.536c.026.066.111.203.38.484.261.272.63.615 1.155 1.102l.117.11.048.044c.27.25.481.446.643.67a2.75 2.75 0 0 1 .49 1.986c-.037.274-.133.545-.255.893l-.022.062c-.235.67-.401 1.145-.507 1.504-.11.376-.125.532-.12.593a1.25 1.25 0 0 0 1.318 1.162c.06-.004.214-.038.573-.194.343-.15.793-.376 1.428-.693l.538-.269.06-.03c.347-.174.62-.31.91-.384a2.75 2.75 0 0 1 1.35 0c.29.074.563.21.91.384l.06.03.538.269c.635.317 1.085.542 1.429.693.358.156.511.19.573.194a1.25 1.25 0 0 0 1.318-1.162c.004-.061-.01-.217-.12-.593-.107-.36-.273-.834-.508-1.504l-.022-.062c-.122-.348-.217-.62-.255-.893a2.75 2.75 0 0 1 .49-1.986c.162-.224.373-.42.643-.67l.048-.045.377-.35.834-.774a.75.75 0 1 1 1.02 1.1l-.833.773-.377.35c-.34.317-.431.406-.494.492a1.25 1.25 0 0 0-.223.903c.015.106.053.226.207.665l.008.021c.226.644.405 1.156.523 1.557.115.39.202.77.178 1.12a2.75 2.75 0 0 1-2.9 2.555c-.35-.02-.717-.154-1.089-.317-.383-.168-.867-.41-1.478-.716l-.02-.01-.537-.268c-.436-.218-.555-.273-.668-.302a1.25 1.25 0 0 0-.614 0c-.113.029-.232.084-.667.302l-.538.268-.02.01c-.61.306-1.095.548-1.478.716-.372.163-.738.297-1.089.317a2.75 2.75 0 0 1-2.9-2.555c-.024-.35.063-.73.178-1.12.118-.401.297-.913.524-1.557l.007-.021c.154-.438.192-.56.207-.665a1.25 1.25 0 0 0-.223-.903c-.062-.086-.153-.175-.493-.491l-.118-.11-.018-.016c-.502-.466-.904-.84-1.199-1.147-.29-.303-.547-.612-.688-.959a2.75 2.75 0 0 1 1.116-3.379c.319-.195.71-.29 1.123-.36.42-.072.965-.133 1.646-.208l.025-.003c.433-.048.55-.064.648-.095a1.25 1.25 0 0 0 .62-.432c.063-.082.118-.186.313-.576l.577-1.153.417-.833a.75.75 0 0 1 1.006-.336z" fill="currentColor"/>
</svg>
